<svg xmlns="http://www.w3.org/2000/svg" xmlns:xlink="http://www.w3.org/1999/xlink" width="104.813232421875" height="65" viewBox="0 0 104.813232421875 65" fill="none">
<g >
<path     fill="url(#linear_fill_3_2_0)"  d="M49.0132 17.3L44.5132 49.4L26.5132 49.4L31.0132 17.3L49.0132 17.3ZM10.3132 24L6.86323 24L7.56323 19.15L11.7632 19.15L12.4632 16.75L10.9632 15L21.1632 15L19.9632 19.15L29.2632 19.15L25.3632 47.05Q25.1132 48.45 24.0132 49.4Q22.9132 50.35 21.4632 50.35L13.2132 50.35L17.6132 45.75L20.6632 24L18.5632 24L10.9632 50.35L2.66323 50.35L10.3132 24ZM37.6632 43.9L40.6132 22.75L37.9132 22.75L34.9632 43.9L37.6632 43.9ZM61.9132 22.55L62.3132 19.65L59.4632 19.65L60.0632 15.4L79.0632 15.4L78.0632 22.55L79.9632 22.55L79.3632 26.8L77.4632 26.8L76.4632 33.95L67.7132 33.95L67.1132 35.35L76.2632 35.35L74.1132 50.45L58.9132 50.45L59.5632 45.8L54.8632 45.8L60.1132 33.95L57.4632 33.95L58.0632 29.65L60.9132 29.65L61.3132 26.8L57.5132 26.8L58.1132 22.55L61.9132 22.55ZM83.7632 29.2L84.5132 23.95L80.7132 23.95L81.3132 19.65L82.9132 19.65L82.6632 16.25L81.1132 14.45L88.7132 14.45L89.1132 19.65L90.6132 19.65L91.9132 16.05L90.6132 14.45L98.7132 14.45L96.8132 19.65L98.4132 19.65L97.8132 23.95L94.0132 23.95L93.2632 29.2L97.0632 29.2L96.4632 33.45L92.6632 33.45L91.9132 38.7L96.7132 38.7L96.1132 42.95L91.3132 42.95L90.2632 50.45L80.7632 50.45L81.8132 42.95L77.1132 42.95L77.7132 38.7L82.4132 38.7L83.1632 33.45L79.3632 33.45L79.9632 29.2L83.7632 29.2ZM68.0632 46.25L69.0132 39.6L67.1132 39.6L66.1632 46.25L68.0632 46.25ZM69.9132 19.65L69.5132 22.55L71.4132 22.55L71.8132 19.65L69.9132 19.65ZM70.4132 29.65L70.8132 26.8L68.9132 26.8L68.5132 29.65L70.4132 29.65Z">
</path>
<path fill-rule="evenodd"  fill="rgba(239, 83, 80, 1)"  d="M83.7632,29.2h-3.8l-0.3176,2.25l-0.2824,2h3.8l-0.2857,2l-0.4643,3.25h-4.7l-0.3176,2.25l-0.2824,2h4.7l-0.28,2l-0.49,3.5l-0.28,2h9.5l1.05,-7.5h4.8l0.6,-4.25h-4.8l0.2857,-2l0.4643,-3.25h3.8l0.3177,-2.25l0.2823,-2h-3.8l0.2857,-2l0.4643,-3.25h3.8l0.321,-2.3l0.2014,-1.4437l0.0776,-0.5563h-1.6l0.0776,-0.2124l0.6532,-1.7876l0.4385,-1.2l0.7307,-2h-8.1l0.117,0.144l1.183,1.456l-0.1444,0.4l-0.7385,2.045l-0.3742,1.0363l-0.0429,0.1187h-1.5l-0.0428,-0.5571l-0.0672,-0.8729l-0.2192,-2.8497l-0.0708,-0.9203h-7.6l0.0881,0.1022l1.4619,1.6978l0.0147,0.2l0.0883,1.2l0.147,2h-1.6l-0.0166,0.1189l-0.1089,0.7811l-0.1954,1.4l-0.2791,2h3.8l-0.2857,2zM81.5031,25.95l-0.1765,1.25h0.702l0.1786,-1.25zM79.4832,25.95l0.1977,-1.4l0.2455,-1.7394l0.0368,-0.2606h-1.9l0.0368,-0.263l0.2429,-1.737l0.4406,-3.15l0.2797,-2h-19l-0.3176,2.25l-0.2824,2h2.85l-0.2758,2l-0.1242,0.9h-3.8l-0.3176,2.25l-0.2824,2h3.8l-0.2807,2l-0.1193,0.85h-2.85l-0.3209,2.3l-0.2791,2h2.65l-0.886,2l-3.4779,7.85l-0.8861,2h4.7l-0.2795,2l-0.0909,0.65l-0.2796,2h15.2l0.7831,-5.5l1.0822,-7.6l0.0925,-0.65l0.1068,-0.75l0.0854,-0.6h-9.15l0.6,-1.4h8.75l0.0839,-0.6l0.9161,-6.55h1.9zM78.0912,36.7h2.5874l0.1786,-1.25h-2.5843l-0.0699,0.5h-0.005zM76.9165,44.95l-1.0679,7.5h-19.2344l0.65,-4.65h-5.4745l5.25,-11.85h-1.8749l0.9977,-7.15h-0.9515l1.1648,-8.25h0.9405l1.0095,-7.15h19.2439l-0.818,-0.95h24.8213l-1.8997,5.2h1.0387l-1.1585,8.3h-3.8057l-0.1786,1.25h3.7962l-1.1647,8.25h-3.8029l-0.1786,1.25h4.7962l-1.1647,8.25h-4.798l-1.05,7.5h-13.539l1.05,-7.5zM9.73259,26l-6.48871,22.35l-0.58065,2h8.29997l0.2235,-0.7748l7.3765,-25.5752h2.1l-0.2804,2l-2.7696,19.75l-4.4,4.6h8.25c0.96667,0 1.81667,-0.31667 2.55,-0.95c0.21087,-0.18207 0.3983,-0.37653 0.5623,-0.5834c0.4064,-0.51273 0.66897,-1.1016 0.7877,-1.7666l3.6205,-25.9l0.2795,-2h-9.3l0.5783,-2l0.0434,-0.15l0.5783,-2h-10.2l1.5,1.75l-0.0729,0.25l-0.6271,2.15h-4.19997l-0.41134,2.85l-0.28866,2h3.44997zM4.55385,26l1.27732,-8.85h4.34073l-3.55712,-4.15h17.20872l-1.2,4.15h6.3912l0.2593,-1.85h22.0392l-0.3193,2.2777l-4.7415,33.8223h-21.5716c-0.95547,0.63333 -2.028,0.95 -3.2176,0.95h-21.4632l7.65,-26.35zM31.5413,17.3h-0.5281l-4.2196,30.1l-0.2804,2h18l4.2197,-30.1l0.2803,-2zM14.1668,46.4596l1.5554,-1.626l1.0279,-7.3305zM71.4132,22.55h-1.9l0.0355,-0.2572l0.2404,-1.7428l0.1241,-0.9h1.9l-0.0354,0.2572l-0.2404,1.7428zM36.9826,43.9h-2.0194l0.279,-2l2.671,-19.15h2.7l-0.2789,2l-2.6711,19.15zM68.7939,27.65l0.1193,-0.85h1.9l-0.0367,0.2615l-0.244,1.7385l-0.1193,0.85h-1.9l0.0367,-0.2615zM66.4489,44.25l0.6643,-4.65h1.9l-0.038,0.266l-0.2477,1.734l-0.6643,4.65h-1.9l0.038,-0.266z">
</path>
</g>
<defs>
<linearGradient id="linear_fill_3_2_0" x1="2.813232421875" y1="0" x2="104.813232421875" y2="65" gradientUnits="userSpaceOnUse">
<stop offset="0.0364583320915699" stop-color="#D0E6C8"  />
<stop offset="0.15625" stop-color="#C8E6C9"  />
<stop offset="0.3438" stop-color="#C8D3E6"  />
<stop offset="0.671875" stop-color="#E6C8DB"  />
<stop offset="0.8697916865348816" stop-color="#E6DBC8"  />
</linearGradient>
</defs>
</svg>
