<svg width="120" height="120" viewBox="0 0 120 120" fill="none" xmlns="http://www.w3.org/2000/svg">
<path d="M58.0347 81.4911L59.1072 79.803L58.0347 81.4911ZM62.3248 81.4911L63.3973 83.1792L62.3248 81.4911ZM58.0358 40H62.0358V36H58.0358V40ZM56.0358 59.2045V42H52.0358V59.2045H56.0358ZM50.0358 61.2045H43.0072V65.2045H50.0358V61.2045ZM39.7896 72.2688L56.9622 83.1792L59.1072 79.803L41.9347 68.8926L39.7896 72.2688ZM63.3973 83.1792L80.5698 72.2688L78.4248 68.8926L61.2522 79.803L63.3973 83.1792ZM77.3523 61.2045H70.0358V65.2045H77.3523V61.2045ZM64.0358 42V59.2045H68.0358V42H64.0358ZM70.0358 61.2045C68.9313 61.2045 68.0358 60.3091 68.0358 59.2045H64.0358C64.0358 62.5182 66.7221 65.2045 70.0358 65.2045V61.2045ZM80.5698 72.2688C85.6383 69.0486 83.3573 61.2045 77.3523 61.2045V65.2045C79.3539 65.2045 80.1143 67.8192 78.4248 68.8926L80.5698 72.2688ZM56.9622 83.1792C58.9258 84.4267 61.4336 84.4267 63.3973 83.1792L61.2522 79.803C60.5977 80.2188 59.7618 80.2188 59.1072 79.803L56.9622 83.1792ZM43.0072 61.2045C37.0022 61.2045 34.7211 69.0486 39.7896 72.2688L41.9347 68.8926C40.2452 67.8192 41.0055 65.2045 43.0072 65.2045V61.2045ZM52.0358 59.2045C52.0358 60.3091 51.1404 61.2045 50.0358 61.2045V65.2045C53.3496 65.2045 56.0358 62.5182 56.0358 59.2045H52.0358ZM62.0358 40C63.1404 40 64.0358 40.8954 64.0358 42H68.0358C68.0358 38.6863 65.3496 36 62.0358 36V40ZM58.0358 36C54.7221 36 52.0358 38.6863 52.0358 42H56.0358C56.0358 40.8954 56.9313 40 58.0358 40V36Z" fill="white" fill-opacity="0.66"/>
</svg>
