<svg xmlns="http://www.w3.org/2000/svg" xmlns:xlink="http://www.w3.org/1999/xlink" width="120" height="120" viewBox="0 0 120 120" fill="none">
<g filter="url(#filter_0_9)">
<path   fill-rule="evenodd"  fill="url(#linear_fill_0_9_0)"  d="M56.6005 38L62.6005 38C64.2574 38 65.6005 39.3431 65.6005 41L65.6005 63.2039L73.4756 63.2039C78.4797 63.2039 80.3807 69.7405 76.1571 72.4241L62.4238 81.1501C60.7873 82.1899 58.6973 82.1899 57.0609 81.1501L43.3275 72.4241C39.1039 69.7405 41.0049 63.2039 46.009 63.2039L53.6005 63.2039L53.6005 41C53.6005 39.3431 54.9436 38 56.6005 38Z">
</path>
<path   fill-rule="evenodd"  fill="url(#linear_fill_0_9_1)"  d="M56.6005 38L62.6005 38C64.2574 38 65.6005 39.3431 65.6005 41L65.6005 63.2039L73.4756 63.2039C78.4797 63.2039 80.3807 69.7405 76.1571 72.4241L62.4238 81.1501C60.7873 82.1899 58.6973 82.1899 57.0609 81.1501L43.3275 72.4241C39.1039 69.7405 41.0049 63.2039 46.009 63.2039L53.6005 63.2039L53.6005 41C53.6005 39.3431 54.9436 38 56.6005 38Z">
</path>
<path   fill-rule="evenodd"  fill="url(#linear_fill_0_9_2)"  d="M56.6005 38L62.6005 38C64.2574 38 65.6005 39.3431 65.6005 41L65.6005 63.2039L73.4756 63.2039C78.4797 63.2039 80.3807 69.7405 76.1571 72.4241L62.4238 81.1501C60.7873 82.1899 58.6973 82.1899 57.0609 81.1501L43.3275 72.4241C39.1039 69.7405 41.0049 63.2039 46.009 63.2039L53.6005 63.2039L53.6005 41C53.6005 39.3431 54.9436 38 56.6005 38Z">
</path>
</g>
<defs>
<linearGradient id="linear_fill_0_9_0" x1="41" y1="38" x2="78.48458862304688" y2="81.92994689941406" gradientUnits="userSpaceOnUse">
<stop offset="0" stop-color="#F74A81"  />
<stop offset="1" stop-color="#F7E94A"  />
</linearGradient>
<linearGradient id="linear_fill_0_9_1" x1="78.48458862304688" y1="81.92994689941406" x2="41" y2="38" gradientUnits="userSpaceOnUse">
<stop offset="0" stop-color="#45C3E5" stop-opacity="0.7" />
<stop offset="0.2760416567325592" stop-color="#45C3E5" stop-opacity="0" />
</linearGradient>
<radialGradient id="linear_fill_0_9_2" cx="0" cy="0" r="1" gradientTransform="translate(41 38) rotate(-220.47349613005036) scale(57.7488927930605, 57.7488927930605)" gradientUnits="userSpaceOnUse">
<stop offset="0" stop-color="#FFFFFF" stop-opacity="0.6" />
<stop offset="0.3228861093521118" stop-color="#FFFFFF" stop-opacity="0" />
</radialGradient>
<filter id="filter_0_9" x="41" y="38" width="37.484619140625" height="43.92994689941406" filterUnits="userSpaceOnUse" color-interpolation-filters="sRGB">
<feFlood flood-opacity="0" result="feFloodId_0_9"/>
<feBlend mode="normal" in="SourceGraphic" in2="feFloodId_0_9" result="shape_0_9"/>
<feColorMatrix in="SourceAlpha" type="matrix" values="0 0 0 0 0 0 0 0 0 0 0 0 0 0 0 0 0 0 127 0" result="hardAlpha_0_9"/>
<feOffset dx="0" dy="0"/>
<feGaussianBlur stdDeviation="2"/>
<feComposite in2="hardAlpha_0_9" operator="arithmetic" k2="-1" k3="1"/>
<feColorMatrix type="matrix" values="0 0 0 0 1 0 0 0 0 1 0 0 0 0 1 0 0 0 0.7 0"/>
<feBlend mode="normal" in2="shape_0_9" result="innerShadow_0_0_9" />
<feColorMatrix in="SourceAlpha" type="matrix" values="0 0 0 0 0 0 0 0 0 0 0 0 0 0 0 0 0 0 127 0" result="hardAlpha_0_9"/>
<feOffset dx="0" dy="4"/>
<feGaussianBlur stdDeviation="5"/>
<feComposite in2="hardAlpha_0_9" operator="arithmetic" k2="-1" k3="1"/>
<feColorMatrix type="matrix" values="0 0 0 0 0.996078431372549 0 0 0 0 0.6431372549019608 0 0 0 0 0.403921568627451 0 0 0 0.5 0"/>
<feBlend mode="normal" in2="innerShadow_0_0_9" result="innerShadow_1_0_9" />
<feColorMatrix in="SourceAlpha" type="matrix" values="0 0 0 0 0 0 0 0 0 0 0 0 0 0 0 0 0 0 127 0" result="hardAlpha_0_9"/>
<feOffset dx="0" dy="4"/>
<feGaussianBlur stdDeviation="2"/>
<feComposite in2="hardAlpha_0_9" operator="arithmetic" k2="-1" k3="1"/>
<feColorMatrix type="matrix" values="0 0 0 0 1 0 0 0 0 1 0 0 0 0 1 0 0 0 0.5 0"/>
<feBlend mode="normal" in2="innerShadow_1_0_9" result="innerShadow_2_0_9" />
</filter>
</defs>
</svg>
