<svg width="20" height="20" viewBox="0 0 20 20" fill="none" xmlns="http://www.w3.org/2000/svg">
<rect width="20" height="20" rx="200" fill="#121212"/>
<path d="M575.267 375.614H625.021V315.123C625.021 315.123 582.723 300 543.071 300C469.044 300 443.547 345.384 443.547 409.278V451.229H398.178V526.843H443.547V723.44H534.284V526.843H609.898L625.021 451.229H534.284V402.926C534.284 382.495 545.959 375.614 575.267 375.614Z" fill="url(#paint0_linear)"/>
<path d="M575.267 375.614H625.021V315.123C625.021 315.123 582.723 300 543.071 300C469.044 300 443.547 345.384 443.547 409.278V451.229H398.178V526.843H443.547V723.44H534.284V526.843H609.898L625.021 451.229H534.284V402.926C534.284 382.495 545.959 375.614 575.267 375.614Z" fill="url(#paint1_radial)"/>
<defs>
<linearGradient id="paint0_linear" x1="398.153" y1="299.954" x2="747.171" y2="464.683" gradientUnits="userSpaceOnUse">
<stop offset="0.28125" stop-color="#FFB74D"/>
<stop offset="0.494792" stop-color="#E57373"/>
<stop offset="0.71875" stop-color="#42A5F5"/>
<stop offset="0.869792" stop-color="#BDBDBD"/>
</linearGradient>
<radialGradient id="paint1_radial" cx="0" cy="0" r="1" gradientUnits="userSpaceOnUse" gradientTransform="translate(398.153 299.954) rotate(61.8239) scale(480.466 426.995)">
<stop offset="0.165032" stop-color="white"/>
<stop offset="0.353459" stop-color="#F5F5F5" stop-opacity="0"/>
</radialGradient>
</defs>
</svg>
