<svg width="120" height="120" viewBox="0 0 120 120" fill="none" xmlns="http://www.w3.org/2000/svg">
<path d="M74.5 78.5909C73.7957 79.1755 73.0566 79.7198 72.2864 80.2202M82.7411 64C82.9116 62.8581 83 61.6894 83 60.5C83 47.5213 72.4787 37 59.5 37C50.3186 37 42.367 42.2653 38.5 49.9411M36.533 55.5C36.1839 57.1113 36 58.7842 36 60.5C36 61.435 36.0546 62.3572 36.1608 63.2636M37.5 68.7794C38.4446 71.2883 39.8061 73.5929 41.5 75.6088M45.5 79.3764C46.7445 80.3009 48.0835 81.1053 49.5 81.7723M54.5 83.467C56.1113 83.8161 57.7842 84 59.5 84C59.6671 84 59.8338 83.9983 60 83.9948M65.0421 83.3427C65.9776 83.1165 66.8913 82.8344 67.7794 82.5" stroke="white" stroke-opacity="0.66" stroke-width="3" stroke-linecap="round" stroke-linejoin="round"/>
</svg>
